<?xml version="1.0" encoding="UTF-8"?>
<!DOCTYPE svg PUBLIC "-//W3C//DTD SVG 1.1//EN"
  "http://www.w3.org/Graphics/SVG/1.1/DTD/svg11.dtd">
<!-- Created with Inkpad (http://inkpad.envoza.com/) --><svg height="212pt" viewBox="0,0,300,212" xmlns:xlink="http://www.w3.org/1999/xlink" xmlns="http://www.w3.org/2000/svg" width="300pt" xmlns:inkscape="http://www.inkscape.org/namespaces/inkscape" version="1.1" xmlns:inkpad="http://inkpad.envoza.com/svg_extensions">
<defs>
<linearGradient y1="109.246" id="LinearGradient" x1="188.089" y2="109.246" x2="206.905" gradientUnits="userSpaceOnUse" gradientTransform="matrix(0.666731 0 0 0.666731 59.7412 34.7379)">
<stop stop-color="#c2c2c2" offset="0"/>
<stop stop-color="#dddddd" offset="0.956767"/>
</linearGradient>
</defs>
<g id="Ebene 1" inkscape:label="Ebene 1" inkscape:groupmode="layer" inkpad:layerName="Ebene 1">
<path stroke="#0e0e0e" stroke-width="1.2" d="M148.709+3.6049L249.24+76.6453L210.841+194.827L86.577+194.827L48.1773+76.6453L148.709+3.6049Z" fill="#96b6b8" stroke-linecap="round" opacity="1" stroke-linejoin="round"/>
<path stroke="#0e0e0e" stroke-width="1.2" d="M205.182+105.411L177.655+105.411C176.049+105.411+174.746+106.714+174.746+108.32L174.746+116.659C174.746+118.265+176.049+119.567+177.655+119.567L205.182+119.567C206.789+119.567+208.091+118.265+208.091+116.659L208.091+108.32C208.091+106.714+206.789+105.411+205.182+105.411Z" fill="#ffffff" stroke-linecap="round" opacity="1" stroke-linejoin="round"/>
<path stroke="#0e0e0e" stroke-width="1.2" d="M199.729+109.606L182.584+109.606C181.788+109.606+181.143+110.251+181.143+111.048L181.143+111.048C181.143+111.844+181.788+112.489+182.584+112.489L199.729+112.489C199.729+112.489+201.17+111.844+201.17+111.048L201.17+111.048C201.17+110.251+200.525+109.606+199.729+109.606Z" fill="#232323" stroke-linecap="round" opacity="1" stroke-linejoin="round"/>
<path stroke="#0e0e0e" stroke-width="1.2" d="M199.946+102.842C199.946+102.842+199.604+87.5713+198.626+83.3651C197.306+77.6887+185.881+75.8194+182.392+79.3081C181.226+80.4742+177.522+81.3391+176.143+82.0284C175.58+82.3102+173.476+83.6983+173.476+83.6983C173.476+83.6983+179.967+85.6432+181.29+90.1946C182.647+94.8653+177.51+100.538+177.51+100.538C180.276+99.8053+183.125+100.157+183.125+100.157C183.125+100.157+182.88+102.266+183.169+102.266C187.006+102.266+199.946+102.842+199.946+102.842Z" fill="#ffffff" stroke-linecap="round" opacity="1" stroke-linejoin="round"/>
<path stroke="#0e0e0e" stroke-width="1.2" d="M104.48+53.4322C103.627+53.3619+118.644+43.3545+118.644+43.3545C121.405+41.8039+124.504+41.0236+128.148+41.0907L130.244+54.1354C124.125+54.2555+121.063+56.9873+119.129+59.265C117.258+61.4689+120.045+67.2779+121.129+70.9018C121.129+70.9018+114.967+72.0079+111.06+72.7984C108.319+73.3528+102.099+75.4829+102.099+75.4829C100.12+70.8727+98.9239+65.7664+98.9239+61.9731C98.924+57.7422+100.626+56.7023+103.591+54.8131" fill="#ffffff" stroke-linecap="round" opacity="1" stroke-linejoin="round"/>
<path stroke="#0e0e0e" stroke-width="1.2" d="M130.244+137.973C132.886+143.192+133.531+145.686+134.077+149.147C134.891+154.292+133.687+163.023+133.687+163.023L92.0797+163.023C92.0797+163.023+91.7898+155.024+94.911+151.601C97.3754+148.898+103.294+146.668+105.244+144.431C105.954+143.618+107.095+143.453+108.495+137.869" fill="#ffffff" stroke-linecap="round" opacity="1" stroke-linejoin="round"/>
<path stroke="#0e0e0e" stroke-width="1.2" d="M128.694+103.905C129.896+111.664+129.636+119.253+129.627+122.871C129.61+129.835+130.244+137.993+130.244+137.993C130.244+137.993+123.624+138.98+119.234+139.138C113.626+139.341+108.495+137.769+108.495+137.769C108.495+137.769+108.495+129.162+108.495+124.117C108.495+117.68+109.196+109.606+109.196+109.606" fill="#ffffff" stroke-linecap="round" opacity="1" stroke-linejoin="round"/>
<path stroke="#0e0e0e" stroke-width="1.2" d="M121.158+70.8727C121.158+70.8727+124.272+80.219+125.285+85.2912C126.264+90.1946+126.264+94.8894+127.534+98.1701C128.537+100.763+131.437+117.541+121.27+118.75C112.194+119.829+108.636+112.751+107.712+100.179C107.023+90.7961+104.824+82.5956+102.099+75.6473" fill="#ffffff" stroke-linecap="round" opacity="1" stroke-linejoin="round"/>
<path stroke="#0e0e0e" stroke-width="1.2" d="M121.484+45.7415C122.587+47.9329+123.495+51.6962+122.183+54.3206C119.228+60.2315+111.186+64.2923+106.069+60.1994C103.314+57.9947+103.318+54.0575+103.318+51.5415C103.318+49.2987+104.364+44.7941+107.27+43.0292C109.519+41.6636+112.531+40.7451+115.457+41.4915C119.096+42.4201+120.244+43.2777+121.484+45.7415Z" fill="#2a2a2a" stroke-linecap="round" opacity="1" stroke-linejoin="round"/>
<path stroke="#0e0e0e" stroke-width="1.2" d="M135.878+61.8581C135.878+61.8581+132.22+57.3966+130.635+54.5559C128.251+50.2817+123.213+44.3349+129.272+40.2954C134.993+36.4816+141.608+39.3851+145.001+42.0779C147.403+43.985+151.397+48.2076+151.397+48.2076" fill="#ffffff" stroke-linecap="round" opacity="1" stroke-linejoin="round"/>
<path stroke="#0e0e0e" stroke-width="1.2" d="M173.476+83.8563C173.476+83.8563+169.517+81.6036+168.642+80.2124C165.67+75.4829+164.186+73.8562+161.872+70.8727C159.153+67.3683+158.749+65.1415+158.264+60.2896C157.898+56.6276+155.005+51.7672+151.397+48.1596C151.397+48.1596+147.125+50.3453+143.147+53.5373C139.571+56.4061+136.135+59.5038+135.742+61.1492C135.297+63.0132+148.171+73.6719+148.171+73.6719" fill="#ffffff" stroke-linecap="round" opacity="1" stroke-linejoin="round"/>
<path stroke="#0e0e0e" stroke-width="1.2" d="M177.51+85.9629C180.704+87.56+181.645+89.8323+181.176+93.8632C180.628+98.5828+177.144+101.361+173.788+101.867C170.056+102.429+165.778+100.713+163.56+97.7569C161.905+95.5495+162.738+91.3184+161.254+88.8441C157.517+82.6166+150.857+78.2268+147.098+71.9621C146.263+70.5698+142.788+64.9633+144.686+62.8991C147.19+60.1764+150.662+61.3577+153.441+63.9639C157.492+67.7618+161.846+74.0229+165.867+78.0438C168.327+80.5039+170.999+82.1707+172.714+83.4762C174.429+84.7817+177.021+85.7185+177.51+85.9629Z" fill="#2d2d2d" stroke-linecap="round" opacity="1" stroke-linejoin="round"/>
</g>
<g id="Ebene 2" inkscape:label="Ebene 2" inkscape:groupmode="layer" inkpad:layerName="Ebene 2">
<path stroke="#0e0e0e" stroke-width="1.2" d="M75.5106+163.023L223.216+163.023C227.17+163.023+230.375+166.228+230.375+170.182L230.375+201.009C230.375+204.963+227.17+208.168+223.216+208.168L75.5106+208.168C71.5569+208.168+68.3517+204.963+68.3517+201.009L68.3517+170.182C68.3517+166.228+71.5569+163.023+75.5106+163.023Z" fill="#343434" stroke-linecap="round" opacity="1" stroke-linejoin="round"/>
<path stroke="#0e0e0e" stroke-width="1.2" d="M118.644+49.541C118.644+46.1243+115.569+43.3545+111.776+43.3545C107.983+43.3545+105.618+46.1243+105.618+49.541C105.618+52.9578+107.983+55.7276+111.776+55.7276C115.569+55.7276+118.644+52.9578+118.644+49.541Z" fill="#ffffff" stroke-linecap="round" opacity="1" stroke-linejoin="round"/>
<path stroke="#0e0e0e" stroke-width="1.2" d="M198.133+82.4364L185.571+77.9884L191.156+77.9331L195.352+79.4412L198.133+82.4364Z" fill="#2a2a2a" stroke-linecap="round" opacity="1" stroke-linejoin="round"/>
<path stroke="#000000" stroke-width="1.2" d="M199.723+119.584C199.723+124.898+199.552+127.438+199.012+130.673C198.284+135.043+197.257+137.503+194.792+139.158L194.792+135.729C194.933+134.419+195.592+132.988+195.592+130.677C195.592+127.953+195.592+119.58+195.592+119.58C195.612+119.549+199.723+119.584+199.723+119.584Z" fill="#1061a3" stroke-linecap="round" opacity="1" stroke-linejoin="round"/>
<path stroke="#0e0e0e" stroke-width="1.2" d="M182.647+119.584C182.647+124.898+182.818+127.438+183.357+130.673C184.085+135.043+185.112+137.503+187.577+139.158L187.577+135.729C187.437+134.419+186.777+132.988+186.777+130.677C186.777+127.953+186.777+119.58+186.777+119.58C186.757+119.549+182.647+119.584+182.647+119.584Z" fill="#1061a3" stroke-linecap="round" opacity="1" stroke-linejoin="round"/>
<path stroke="#0e0e0e" stroke-width="1.2" d="M185.146+102.399L185.112+105.411L197.691+105.411L197.691+102.842L185.146+102.399Z" fill="url(#LinearGradient)" stroke-linecap="round" opacity="1" stroke-linejoin="round"/>
<path stroke="#0e0e0e" stroke-width="1.2" d="M150.007+75.8523C150.007+75.8523+148.194+71.8804+147.986+70.5364C147.83+69.5273+146.772+66.9596+149.195+65.5189C150.336+64.8407+151.37+64.4291+152.924+65.148C154.025+65.6573+154.8+66.9918+155.448+68.1476C155.86+68.8823+155.435+69.5552+155.08+70.8727C154.747+72.1076+154.31+72.5315+155.786+73.9708C156.852+75.0098+157.816+76.0005+158.978+77.314C160.471+79.0015+160.924+78.787+162.443+78.5698C164.292+78.3053+164.499+78.0982+165.805+79.3988C168.076+81.66+170.744+83.7062+172.833+85.0813C175.204+86.6424+176.874+87.5881+177.28+90.9465C177.686+94.3048+176.491+96.4409+174.429+97.6632C172.176+98.9977+169.58+98.7458+166.738+96.9374C163.896+95.1291+163.256+93.0501+162.481+90.9465C161.706+88.8429+159.602+85.6321+157.573+83.6024C155.543+81.5726+150.007+75.8523+150.007+75.8523Z" fill="#ffffff" stroke-linecap="round" opacity="1" stroke-linejoin="round"/>
<path stroke="#0e0e0e" stroke-width="1.2" d="M92.0726+163.023C95.4772+153.448+103.318+149.147+114.838+149.147" fill="none" stroke-linecap="round" opacity="1" stroke-linejoin="round"/>
<path stroke="#0e0e0e" stroke-width="1.2" d="M114.838+151.903C112.131+151.903+109.602+152.254+106.616+153.307" fill="none" stroke-linecap="round" opacity="1" stroke-linejoin="round"/>
<path stroke="#0e0e0e" stroke-width="1.2" d="M114.838+153.98C112.131+153.98+109.861+154.492+108.495+155.004" fill="none" stroke-linecap="round" opacity="1" stroke-linejoin="round"/>
<text x="0" font-family="'PingFangTC-Medium'" y="0" text-anchor="middle" inkpad:text="frankx" fill="#ffffff" font-size="37" inkpad:width="140.889" opacity="1" transform="matrix(0.929973 0 0 0.929973 82.8317 160.951)">
<tspan x="70.4443" y="39" textLength="109.927">
<![CDATA[frankx]]></tspan>
</text>
<path stroke="#0e0e0e" stroke-width="1.2" d="M324.979+170.975L324.979+170.975C325.152+170.975+325.292+171.115+325.292+171.288L325.292+171.288C325.292+171.461+325.152+171.601+324.979+171.601L324.979+171.601C324.806+171.601+324.666+171.461+324.666+171.288L324.666+171.288C324.666+171.115+324.806+170.975+324.979+170.975Z" fill="none" stroke-linecap="round" opacity="1" stroke-linejoin="round"/>
</g>
</svg>
